# xmcd
#
# Track frame offsets:
# 150
# 11583
# 21648
# 34485
# 43801
# 52593
# 60280
# 70860
# 79583
# 86625
# 97793
# 105691
# 116555
# 128375
# 134753
# 143781
# 153206
# 161805
# 171718
# 183840
# 194031
# 206989
# 219444
# 229222
# 237425
# 244035
# 250358
#
# Disc length: 3460 seconds
#
# Revision: 0
# Processed by: cddbd v1.4PL0 Copyright (c) Steve Scherf et al.
# Submitted via: Audion 3.0.2 (http://www.panic.com/audion/)
#
DISCID=830d821b
DTITLE=Spade Cooley and Tex Williams - A Western Swing Dance Date With Spade and Tex
DYEAR=1900
DGENRE=
TTITLE0=Diggin' With Spade
TTITLE1=Aria From Dixie
TTITLE2=You'll Rue The Day (w/ Tex Williams)
TTITLE3=Guitar Swing
TTITLE4=My Chickashay Gal (w/ Smokey Rogers)
TTITLE5=Yearning (Just For You)
TTITLE6=Do Ya Or Don't Cha (w/ Tex Williams)
TTITLE7=Hornpipe Swing
TTITLE8=The Wabash Cannonball (w/ Ginny Jackson)
TTITLE9=Texas Playboy Rag No. 2
TTITLE10=Fireball Mail (w/ Ginny Jackson)
TTITLE11=Sioux City Sue (w/ Red Egner)
TTITLE12=Tatle-Tale Ploka
TTITLE13=Piggy Bank Polka (w/ Red Egner and Del Porter)
TTITLE14=Leather Britches (w/ Del Porter)
TTITLE15=Pale Moon
TTITLE16=Red Wing
TTITLE17=Crazy 'Cause I Love You (w/ Red Egner)
TTITLE18=California Polka
TTITLE19=Texas Playboy Rag
TTITLE20=You Can't Break My Heart (w/ Tex Williams)
TTITLE21=Spadella
TTITLE22=Hide Your Face (w/ Tex Williams)
TTITLE23=Cowpoke Polka
TTITLE24=Banjo Polka
TTITLE25=Riverside Stomp
TTITLE26=Snow Deer Stomp
EXTD=
EXTT0=
EXTT1=
EXTT2=
EXTT3=
EXTT4=
EXTT5=
EXTT6=
EXTT7=
EXTT8=
EXTT9=
EXTT10=
EXTT11=
EXTT12=
EXTT13=
EXTT14=
EXTT15=
EXTT16=
EXTT17=
EXTT18=
EXTT19=
EXTT20=
EXTT21=
EXTT22=
EXTT23=
EXTT24=
EXTT25=
EXTT26=
PLAYORDER=
